<svg width="25" height="24" viewBox="0 0 25 24" fill="none" xmlns="http://www.w3.org/2000/svg">
<rect x="0.330078" width="24" height="24" rx="12" fill="#1C1C1C"/>
<path d="M8.59188 6.59526L8.59218 6.59557L12.1512 10.1544L12.3279 10.3311L12.5047 10.1544L16.0617 6.59962L16.0618 6.59957C16.5225 6.13881 17.2676 6.13881 17.7283 6.59957C18.1891 7.06032 18.1891 7.80535 17.7283 8.2661L14.1713 11.8208L13.9945 11.9976L14.1712 12.1744L17.7321 15.7374L17.7321 15.7374C18.1929 16.1982 18.1929 16.9432 17.7321 17.404L17.7315 17.4046C17.5026 17.6351 17.1997 17.75 16.8989 17.75C16.5963 17.75 16.2953 17.6352 16.0662 17.4046L16.0656 17.404L12.5048 13.841L12.3279 13.6641L12.1511 13.841L8.59593 17.3985L8.59539 17.399C8.36632 17.6297 8.06527 17.7445 7.76272 17.7445C7.46017 17.7445 7.15912 17.6297 6.93006 17.399L6.92945 17.3984C6.4687 16.9377 6.4687 16.1926 6.92945 15.7319L6.92951 15.7318L10.4847 12.1744L10.6613 11.9976L10.4846 11.8209L6.92564 8.2621C6.92564 8.2621 6.92564 8.2621 6.92564 8.26209C6.46494 7.8014 6.46489 7.05649 6.92548 6.59572C7.38855 6.13438 8.13348 6.13529 8.59188 6.59526Z" fill="white" stroke="#1C1C1C" stroke-width="0.5"/>
</svg>
