<svg width="28" height="28" viewBox="0 0 28 28" fill="none" xmlns="http://www.w3.org/2000/svg">
<rect width="28" height="28" rx="6" fill="#1C1C1C"/>
<path fill-rule="evenodd" clip-rule="evenodd" d="M13.5344 7.026C13.8194 7.026 14.0507 7.25694 14.0507 7.5415C14.0507 7.82606 13.8194 8.057 13.5344 8.057H10.9604C9.18158 8.057 8.03262 9.27359 8.03262 11.1562V16.8708C8.03262 18.7534 9.18158 19.97 10.9604 19.97H17.035C18.8139 19.97 19.9635 18.7534 19.9635 16.8708V14.1022C19.9635 13.8176 20.1948 13.5866 20.4798 13.5866C20.7648 13.5866 20.9961 13.8176 20.9961 14.1022V16.8708C20.9961 19.3411 19.4038 21.001 17.035 21.001H10.9604C8.59161 21.001 7 19.3411 7 16.8708V11.1562C7 8.68592 8.59161 7.026 10.9604 7.026H13.5344ZM19.5302 7.62989L20.368 8.46638C20.7763 8.87329 21.0007 9.41422 21 9.99021C21 10.5662 20.7756 11.1065 20.368 11.5127L15.1987 16.6739C14.8194 17.0526 14.3141 17.2616 13.7772 17.2616H11.1984C11.0593 17.2616 10.9257 17.2052 10.8287 17.1055C10.7316 17.0066 10.6786 16.8725 10.682 16.733L10.7468 14.1356C10.7598 13.6187 10.9684 13.1327 11.3347 12.7664L16.4799 7.62989C17.3211 6.79134 18.689 6.79134 19.5302 7.62989ZM16.0561 9.51045L12.0651 13.4956C11.8868 13.6737 11.7856 13.9101 11.7794 14.161L11.7278 16.2306H13.7772C14.0388 16.2306 14.2838 16.1295 14.469 15.9446L18.4841 11.9347L16.0561 9.51045ZM17.2096 8.35916L16.7858 8.78119L19.2138 11.2061L19.6383 10.7834C19.8503 10.5717 19.9674 10.2899 19.9674 9.99021C19.9674 9.68985 19.8503 9.40735 19.6383 9.19565L18.8005 8.35916C18.362 7.9227 17.6488 7.9227 17.2096 8.35916Z" fill="white"/>
</svg>
