<svg width="25" height="24" viewBox="0 0 25 24" fill="none" xmlns="http://www.w3.org/2000/svg">
<rect x="0.730469" width="24" height="24" rx="12" fill="#FFDE59"/>
<path d="M13.6994 10.9793V11.0293L13.7494 11.0293L17.7116 11.0296C18.2464 11.0296 18.6805 11.4639 18.6805 11.9992C18.6805 12.5344 18.2464 12.9688 17.7116 12.9688L13.7494 12.9685L13.6994 12.9685V13.0185V16.9804C13.6994 17.5156 13.2653 17.95 12.7305 17.95C12.1957 17.95 11.7616 17.5156 11.7616 16.9804V13.0185V12.9685L11.7116 12.9685L7.74937 12.9688C7.21327 12.9688 6.78047 12.5345 6.78047 11.9992C6.78047 11.4639 7.21327 11.0296 7.74938 11.0296L11.7116 11.0293L11.7616 11.0293V10.9793V7.0196C11.7616 6.48436 12.1957 6.05 12.7305 6.05C13.2653 6.05 13.6994 6.48436 13.6994 7.0196V10.9793Z" fill="#1C1C1C" stroke="#FFDE59" stroke-width="0.1"/>
</svg>
